<svg xmlns:dc="http://purl.org/dc/elements/1.1/" xmlns:cc="http://creativecommons.org/ns#" xmlns:rdf="http://www.w3.org/1999/02/22-rdf-syntax-ns#" xmlns:svg="http://www.w3.org/2000/svg" xmlns="http://www.w3.org/2000/svg" xmlns:sodipodi="http://sodipodi.sourceforge.net/DTD/sodipodi-0.dtd" xmlns:inkscape="http://www.inkscape.org/namespaces/inkscape" version="1.1" x="0px" y="0px" viewBox="0 0 100 125"><g transform="translate(0,-952.36218)"><path d="m 18.874498,971.2367 c -17.1703031,17.1703 -17.1653741,45.0745 0.01106,62.251 17.176428,17.1764 45.058583,17.1592 62.228892,-0.011 17.170299,-17.1704 17.187476,-45.05252 0.01105,-62.22895 -17.17643,-17.17642 -45.080696,-17.18134 -62.251004,-0.0111 z m 2.122823,3.53736 c 19.298495,3.08516 34.022362,11.49189 44.791382,24.01527 -2.368763,2.66847 -4.950919,5.32797 -7.735745,7.95687 -4.231316,-3.5255 -10.515438,-5.2843 -18.614375,-5.4415 -7.947747,-0.1542 -17.742054,1.2732 -29.33412,4.3498 -0.9163711,-11.00122 2.723997,-22.30018 10.892858,-30.88044 z m 3.646924,-3.38159 c 11.50455,-9.44257 26.996222,-11.49672 40.254255,-6.16047 -0.06038,9.53199 0.646895,18.72654 7.012279,26.02021 -1.129052,1.53268 -2.307818,3.06221 -3.558287,4.57534 C 57.568003,983.53094 43.088094,974.96531 24.644245,971.39247 z m -13.964317,38.24123 c 11.532173,-3.09 21.145651,-4.4734 28.64884,-4.3278 7.24388,0.1406 12.495747,1.6845 15.762446,4.1809 -8.54709,7.6265 -18.977643,15.1423 -31.607785,22.8079 -0.596633,-0.53 -1.196948,-1.0644 -1.768748,-1.6362 -5.958813,-5.9588 -9.607827,-13.3297 -11.034721,-21.0249 z m 58.175899,-42.5662 c 3.388847,1.81662 6.579954,4.14871 9.440589,7.00935 0.865175,0.86517 1.662641,1.77651 2.432157,2.69738 -1.849821,3.79048 -3.978919,7.48089 -6.430921,11.11826 -5.2159,-7.47033 -5.923169,-13.83577 -5.441825,-20.82499 z m -42.033885,67.9027 c 12.253303,-7.5175 22.509848,-14.964 31.010958,-22.5649 1.666046,2.5286 2.230018,5.7275 1.681816,9.8596 -0.714459,5.3854 -3.54626,12.2283 -8.662043,20.1151 -8.409205,0.174 -16.870285,-2.2993 -24.030731,-7.4098 z m 56.604221,-54.61429 c 2.925889,4.42646 4.879324,9.32174 5.860684,14.34795 -4.917016,-0.0583 -8.93749,-1.36371 -12.092764,-3.87073 2.348703,-3.42061 4.397847,-6.91741 6.23208,-10.47722 z m -8.552666,13.68219 c 4.024602,3.10062 9.141401,4.71119 14.988827,4.68919 0.758004,8.32261 -1.093256,16.85711 -5.544347,24.24941 -3.392782,-8.9412 -7.812708,-17.0235 -13.334287,-24.0317 1.357242,-1.62017 2.664758,-3.26189 3.889807,-4.9069 z m -6.497803,7.9129 c 5.531176,7.2078 9.891208,15.6044 13.179726,25.0265 -0.999061,1.2767 -2.07303,2.5152 -3.248954,3.6911 -6.336593,6.3366 -14.259809,10.0911 -22.47998,11.2923 4.340672,-7.1518 6.899282,-13.519 7.645342,-19.1426 0.672733,-5.071 -0.251867,-9.5914 -2.721393,-13.1094 2.718316,-2.5647 5.281069,-5.1467 7.625244,-7.7579 z" style="text-indent:0;text-transform:none;direction:ltr;block-progression:tb;baseline-shift:baseline;color:#000000;enable-background:accumulate;" fill="#000000" fill-opacity="1" stroke="none" marker="none" visibility="visible" display="inline" overflow="visible"/></g></svg>