<svg xmlns="http://www.w3.org/2000/svg" xmlns:xlink="http://www.w3.org/1999/xlink" version="1.1" x="0px" y="0px" viewBox="0 0 100 125" enable-background="new 0 0 100 100" xml:space="preserve"><g><path d="M39.493,51.913c0.239,0.331,0.051-2.076,0.051-2.076c-1.569-0.66-3.139,1.923-3.139,1.923l-2.777-0.093   c0.861-0.708-0.464-1.173-0.464-1.173l1.266-4.455c2.633-7.04,9.924-3.697,9.924-3.697C46.733,43.76,48,43,48,43l4.608-2.784   c1.366-0.505,1.062-1.316,1.062-1.316c-1.012-1.367-0.759-2.177-0.759-2.177c-3.85-4.811-16.154-14.481-16.154-14.481   c-1.215-2.531-1.924,0.152-1.924,0.152c-3.037,4.86-5.417-1.52-5.417-1.52c-2.228-4.91,6.735-16.607,6.735-16.607   c3.139-1.771,5.52,2.278,5.52,2.278l0.454,3.898c3.645,6.229,20.254,18.178,20.254,18.178c1.469,0.659,3.037,0.101,3.037,0.101   c0.86-1.214,3.393-6.125,3.393-6.125c-1.367,0-5.315-0.354-5.315-0.354c-1.165-1.417-1.975-0.861-1.975-0.861   c-0.71,2.076-2.432,2.38-2.432,2.38C56,22.191,52.354,13.432,52.354,13.432c-0.657-3.241,1.368-1.874,1.368-1.874   c1.216,1.316,6.53,3.544,6.53,3.544l1.418-0.253l0.608,1.063l4.05,0.81c3.85-3.241,8.71-2.836,8.71-2.836   c4.051-0.202,4.86,1.013,4.86,1.013c2.432,6.277-5.063,20.659-5.063,20.659c-0.81,1.012-1.416,3.849-1.416,3.849l-1.014,4.05   c-1.215,0-2.228,0-2.228,0L67.14,46.9c-1.216,8.709-9.521,15.595-9.521,15.595c-2.835,1.419-3.441,5.873-3.441,5.873   c1.012,7.291-4.66,7.291-4.66,7.291c1.216,6.077-3.282,15.043-3.282,15.043c-0.362,0.766-2.439,0.351-2.439,0.351l-2.53-0.05   l-2.634-0.053l0.052-0.81l-2.531-0.506l0.81-0.406l0.708-0.656l5.013-0.051c2.178-0.355,1.722-2.229,1.722-2.229l-0.202-13.521   c0,0-0.303-7.746-0.303-8.201c0-0.069,0.014-0.156,0.029-0.258c0.101-0.574,0.335-1.583-1.044-1.97   c-0.064-0.019-0.128-0.037-0.192-0.052c-1.476-0.349-2.033,0.304-2.033,0.304c-3.09,0.76-3.646-0.404-3.646-0.404   c-5.316-1.064-6.697-4.771-6.697-4.771c-0.911-2.849,1.886-5.811,1.886-5.811S37.986,49.826,39.493,51.913z"/></g></svg>