<svg xmlns="http://www.w3.org/2000/svg" xmlns:xlink="http://www.w3.org/1999/xlink" version="1.1" x="0px" y="0px" viewBox="0 0 100 125" enable-background="new 0 0 100 100" xml:space="preserve"><path d="M90.848,80.107c-1.627-4.757-12.247-8.228-17.079-10.382c-2.367-1.057-5.046-1.695-6.46-2.77  c-1.43-1.088-1.642-3.427-3.463-5.079c-0.721-0.654-2.831,0.15-3-1.154c-0.254-1.983,1.859-3.223,2.539-5.077  c0.692-1.893,0.249-1.64,0.756-3.946c3.939-1.125,5.705-10.361,3.166-10.593c0.659-3.596,1.297-8.177,1.033-12.076v-7.29  l2.021-0.874l6.1-2.641c1.593-0.692,1.593-1.821,0-2.512L52.901,5.518c-1.596-0.69-4.204-0.69-5.801,0L23.542,15.713  c-1.594,0.691-1.594,1.82,0,2.512l1.786,0.772l-0.15,1.198c-0.685,0.117-1.205,0.713-1.205,1.428c0,0.645,0.421,1.195,1.003,1.379  l-1.081,15.179c-0.045,0.637,0.08,1.645,0.28,2.248l0.882,2.638c0.198,0.604,0.525,0.604,0.728,0l0.88-2.638  c0.2-0.603,0.328-1.611,0.282-2.248l-1.082-15.179c0.579-0.186,1.003-0.735,1.003-1.379c0-0.714-0.521-1.311-1.208-1.428  l-0.137-1.115l4.12,1.786l2.021,0.874v7.339c-0.255,3.891,0.369,8.443,1.027,12.027c-2.539,0.232-0.709,9.49,3.231,10.617  c0.506,2.305,0,2.03,0.691,3.923c0.679,1.854,2.794,3.094,2.539,5.077c-0.168,1.305-2.278,0.5-3,1.154  c-1.821,1.652-2.033,3.991-3.461,5.079c-1.415,1.074-4.095,1.711-6.462,2.77c-4.83,2.154-15.448,5.625-17.076,10.382  c-0.92,2.698-0.385,4.867-0.512,7.849h0.001c0,0.007-0.001,0.014-0.001,0.021c0,3.877,18,7.022,40.205,7.022  c22.206,0,42.513-3.146,42.513-7.022c0-0.008-0.001-0.016-0.001-0.016l0.001-0.006C91.231,84.975,91.77,82.806,90.848,80.107z" fill="white"/></svg>