<svg xmlns="http://www.w3.org/2000/svg" xmlns:xlink="http://www.w3.org/1999/xlink" version="1.1" x="0px" y="0px" viewBox="0 0 100 125" enable-background="new 0 0 100 100" xml:space="preserve"><path d="M50,90.514C72.34,90.514,90.514,72.34,90.514,50C90.514,27.66,72.34,9.486,50,9.486C27.66,9.486,9.486,27.66,9.486,50  c0,9.757,3.468,18.719,9.235,25.72l0.02,0.109l0.062-0.011C26.24,84.789,37.463,90.514,50,90.514z M38.39,86.722l1.369-2.429  l4.36-1.372l12.312,0.15l6.502,0.117l0.001-0.038l0.07,0.001l2.33,2.171c-4.702,2.049-9.885,3.193-15.333,3.193  C45.955,88.514,42.056,87.884,38.39,86.722z M41.379,68.934l0.2-0.205l11.918-12.215h13.749l5.249,12.305l-9.736,12.329  l-6.267-0.076l-9.615-0.173L41.379,68.934z M26.49,63.339l-6.338-18.733l8.005-8.929l17.791,3.238l5.767,16.542L40.131,67.349  l-0.264,0.271L26.49,63.339z M28.94,25.336l14.903-10.678l13.046,3.057L58.6,28.978l-11.87,8.063l0.003-0.016L28.94,33.786V25.336z   M74.179,67.67l-5.351-12.543l5.379-15.024l8.946-0.639l5.339,11.408c-0.144,6.429-1.864,12.473-4.799,17.76v-3.435L74.179,67.67z   M81.195,27.451l1.367,10.05l-9.325,0.667l-12.586-9l-1.734-11.42l8.796-1.929C73.062,18.601,77.678,22.6,81.195,27.451z   M43.062,12.124l-0.348,0.883L28.273,23.354l-9.076,3.554C24.905,19.313,33.355,13.898,43.062,12.124z M12.496,41.269l5.561,3.383  l6.795,20.085l-2.134,8.337l-3.094,0.562C14.531,67.105,11.486,58.904,11.486,50C11.486,46.997,11.842,44.077,12.496,41.269z   M21.087,75.403l2.698-0.49l13.662,9.408l-0.977,1.733C30.497,83.806,25.23,80.112,21.087,75.403z"/></svg>