<svg xmlns="http://www.w3.org/2000/svg" xmlns:xlink="http://www.w3.org/1999/xlink" xml:space="preserve" version="1.1" style="shape-rendering:geometricPrecision;text-rendering:geometricPrecision;image-rendering:optimizeQuality;" viewBox="0 0 275 416.25" x="0px" y="0px" fill-rule="evenodd" clip-rule="evenodd"><defs><style type="text/css">
   
    .fil0 {fill:black}
   
  </style></defs><g><path class="fil0" d="M92 300c-7,3 -13,5 -18,6 -9,3 -21,6 -26,-5 -2,-6 -1,-12 -2,-18 -1,-6 -6,-6 -7,-12 0,-2 1,-5 0,-6 -1,-2 -2,-3 -2,-6 -1,-2 -1,-14 -1,-14 -3,-3 -6,-6 -9,-9 -7,-8 1,-16 6,-22 2,-4 12,-17 13,-22 0,-6 -8,-9 -5,-25 2,-13 6,-25 12,-34l0 -72 -51 -15c-3,-1 -3,-5 0,-6l135 -40c0,0 1,0 1,0l135 40c3,1 3,5 0,6l-12 3 0 34 0 0c4,0 8,3 8,7 0,4 -4,8 -8,8l0 0 0 2c4,2 7,7 7,12l0 11c-9,0 -17,0 -26,0l0 -11c0,-5 3,-10 7,-12l0 -2 0 0c-4,0 -7,-4 -7,-8 0,-4 3,-7 7,-7l0 0 0 -30 -27 8 0 68c9,14 15,30 14,50 0,34 -17,40 -28,68 -5,11 -4,22 -2,33 9,42 36,53 -4,53l-68 0c-26,0 -27,-11 -42,-33z"/></g></svg>