<svg xmlns="http://www.w3.org/2000/svg" viewBox="0 0 100 125" x="0px" y="0px"><path d="m52.013689 59.034361c.902367.902723.902901 2.368993 0 3.271894l-13.200908 13.200908c-.178268.178268-.177575.467629.000705.645898.178264.178265.466933.178267.645201 0l11.241655-11.241666c.903258-.903257 2.368637-.903257 3.271894 0 .903259.903259.903259 2.368638 0 3.271896l-12.933232 12.933232c-.181342.181341-.181343.476378.000001.657718.181342.181341.475679.180642.657021-.000708l5.620483-5.620472c.903684-.903683 2.368213-.903684 3.271896 0 .903683.903682.904378 2.368907.000705 3.27259l-11.646316 11.646309c-5.237391 5.237387-13.729309 5.237387-18.966702 0-5.231328-5.231327-5.246008-13.718483-.01738-18.947933l9.036978-9.038401c1.393956-1.394176 1.644853-1.627042 2.548824-.723071 1.582838 1.582839.903259 3.79392 0 4.697179l-3.739806 3.739805c-.181341.181341-.181342.474984 0 .656326.18136.181359.474985.181341.656326 0l14.391886-14.39189c.903257-.903258 2.368976-.902918 3.272591.000705.903613.903614.903257 2.368637 0 3.271896l-11.241663 11.241655c-.181342.181342-.181343.474984 0 .656325.181342.181343.475679.182038.65702.000705l13.200908-13.200917c.902563-.902529 2.369545-.902707 3.271913.000017z"/><path d="m47.98631 40.965641c-.902366-.902723-.902902-2.368994 0-3.271895l13.200915-13.200912c.178267-.178268.177572-.467628-.000503-.645898-.178267-.178264-.466935-.178267-.645205 0l-11.24186 11.24167c-.903258.903259-2.368637.903259-3.271895 0-.903258-.903258-.903258-2.368637 0-3.271895l12.933237-12.933237c.18134-.181339.181343-.476374.000001-.657717-.181344-.181342-.475683-.180644-.657022.000705l-5.620484 5.620484c-.903684.903684-2.368214.903685-3.271898.000003-.903683-.903683-.904377-2.368909-.000704-3.272594l11.646302-11.6463022c5.237391-5.2373896 13.729309-5.2373924 18.966703.000001 5.231327 5.2313212 5.246007 13.7184792.01737 18.9479282l-9.036954 9.038392c-1.393955 1.394176-1.644851 1.62704-2.548821.72307-1.58284-1.582839-.903261-3.79392 0-4.697181l3.739803-3.739801c.181343-.181344.181343-.474986.000005-.656328-.181363-.18136-.474989-.181342-.656332.000002l-14.391889 14.39189c-.903258.903258-2.368977.902919-3.27259-.000704-.903615-.903614-.903258-2.368638 0-3.271895l11.241667-11.24167c.181342-.18134.181342-.474981 0-.656323-.181343-.181344-.475679-.182038-.657016-.000705l-13.200918 13.200929c-.902562.90253-2.369544.902707-3.271912-.000017z"/><path d="m40.96564 52.01369c-.902724.902367-2.368993.902902-3.271895 0l-13.200908-13.200908c-.178268-.178268-.467628-.177574-.645898.000695-.178264.178265-.178268.466933 0 .645201l11.241666 11.241665c.903258.903259.903258 2.368638 0 3.271895-.903258.903258-2.368637.903258-3.271896 0l-12.933232-12.933233c-.181342-.181341-.476374-.181342-.657717 0-.181342.181343-.180646.47568.000705.657021l5.620474 5.620485c.903684.903683.903685 2.368213 0 3.271895-.903682.903684-2.368907.904379-3.27259.000706l-11.6463058-11.646316c-5.2373901-5.23739-5.237392-13.729309.0000004-18.966702 5.2313234-5.231328 13.7184784-5.246007 18.9479294-.01738l9.038401 9.036977c1.394177 1.393955 1.627048 1.644846.723071 2.548824-1.582839 1.582838-3.793919.903258-4.697179-.000001l-3.739805-3.739805c-.181341-.181341-.474983-.181342-.656325 0-.18136.18136-.181341.474985 0 .656326l14.391889 14.39189c.903258.903257.902918 2.368976-.000705 3.27259-.903614.903613-2.368636.903257-3.271895 0l-11.241655-11.241666c-.181343-.181342-.474985-.181344-.656325.000001-.181343.181342-.182038.475678-.000706.65702l13.200909 13.200908c.902529.902563.902707 2.369544-.000017 3.271912z"/><path d="m59.034359 47.986312c.902723-.902368 2.368995-.902904 3.271897-.000003l13.200912 13.200914c.178267.178267.467629.177573.645896-.000706.178267-.178264.178267-.466933 0-.645201l-11.241666-11.241659c-.90326-.903258-.903261-2.368636-.000004-3.271893.90326-.903261 2.368642-.903261 3.271897-.000003l12.933239 12.933236c.181338.18134.476374.181344.657717 0 .181337-.18134.180643-.47568-.000504-.65702l-5.620679-5.620484c-.903683-.903684-.903683-2.368215 0-3.271896.903683-.903685 2.368909-.904378 3.272592-.000705l11.646301 11.646303c5.237389 5.237388 5.237394 13.729307-.000005 18.9667-5.231317 5.231326-13.718478 5.246013-18.947922.01743l-9.038402-9.036968c-1.394177-1.393956-1.62704-1.644853-.72307-2.548824 1.582838-1.582836 3.79392-.903258 4.69718.000002l3.739803 3.739803c.181343.181343.474984.181343.656326 0 .181359-.181358.181343-.474983 0-.656326l-14.391891-14.391934c-.903258-.903258-.902918-2.368978.000704-3.272592.903614-.903613 2.368637-.903257 3.271895.000001l11.241669 11.24167c.181343.181339.474985.181339.656327-.000004.181338-.18134.182033-.475676.000504-.657016l-13.200733-13.200913c-.902528-.902564-.902707-2.369545.000017-3.271912z"/></svg>